<svg width="600" height="270" viewBox="0 0 600 270" fill="none" xmlns="http://www.w3.org/2000/svg">
<path d="M50.9854 184.94V190.47L57.6174 194.42L54.2954 209.07V216.61H57.6174L54.2954 221.64L57.6174 229.18L67.8592 236.72L75.7024 242.75L78.7126 248.28L93.7875 253.81L98.6086 261.36V268.39L104.641 280.96L114.883 309.11L118.505 316.15L123.937 324.2V330.23L126.947 333.24L134.779 343.3H142.022L145.033 349.83L157.085 345.81L142.622 336.26V328.22L138.401 322.18V314.14L135.99 311.63L139 308.61V301.07L145.033 299.06L145.632 294.53L140.811 289.51L148.043 288L150.465 276.94L151.065 261.86L149.254 255.83L157.085 252.31L163.118 248.28V235.72V219.63L173.371 215.11V200.02L163.118 194.42H155.886L154.675 191.48L145.632 191.98L139 187.96L128.147 188.46L126.947 184.94L122.726 179.41L117.905 174.89H104.641L98.0089 169.36L91.9766 165.84L94.9868 161.82L85.3446 167.85L81.1231 170.87L70.8813 168.35L66.0483 169.36L61.2272 171.87L58.8166 177.4L56.4061 181.42L50.9854 184.94Z" fill="#EDEEF1"/>
<path d="M2.15076 169.36H8.17112L12.9922 164.83V158.8L20.8355 154.28V165.84V169.36L25.0569 172.37L32.8882 166.34L36.51 175.39V182.43L43.142 184.44L50.9852 182.93L56.406 181.42L60.0278 181.93L57.0056 184.44H50.0018L49.1024 186.51L48.1909 189.72L44.5691 190.66H39.832L34.3993 187.46H33.0441L28.9785 183.5L27.1676 182.37L24.6732 179.73L20.6076 180.1L14.5033 180.67L9.98203 178.78H6.81594L1.16736 178.22L0.0400391 172.47L2.15076 169.36Z" fill="#EDEEF1"/>
<path d="M93.187 162.95V159.18V156.92L94.3143 154.28L93.187 150.69L91.8318 147.87L88.21 148.81L91.2561 150.51V153.52V157.29V160.5L93.187 162.95Z" fill="#EDEEF1"/>
<path d="M98.3809 157.1L99.2924 155.41H97.4814L98.3809 157.1Z" fill="#EDEEF1"/>
<path d="M91.2575 145.98V142.97L87.084 144.47L91.2575 145.98Z" fill="#EDEEF1"/>
<path d="M85.5007 149H83.4619L81.8789 147.87L83.6898 146.92L85.5007 147.87V149Z" fill="#EDEEF1"/>
<path d="M80.9795 142.97H83.6899V145.23H81.8789L80.9795 142.97Z" fill="#EDEEF1"/>
<path d="M85.5 145.98V144.47L88.2104 145.98L86.8552 146.92L85.5 145.98Z" fill="#EDEEF1"/>
<path d="M72.8359 149L74.6468 147.96L77.8129 148.48V146.92L75.3184 145.23H72.8359V146.92V149Z" fill="#EDEEF1"/>
<path d="M68.9978 147.96L70.7967 147.11L68.9978 145.23L64.4645 144.47L60.0272 145.7L57.4607 147.87V150.32V151.64H54.9782L53.623 152.96L54.7504 154.28L57.2329 152.96L60.0272 151.07L64.6924 151.64L66.7311 150.32L68.9978 147.96Z" fill="#EDEEF1"/>
<path d="M44.125 155.41L46.3796 154.28H49.5457L50.9848 156.26H48.6463L46.6075 157.1H44.125V155.41Z" fill="#EDEEF1"/>
<path d="M44.125 151.45L46.6075 150.32L49.7736 149.37H53.6233L54.9785 147.87L55.8779 145.7L52.7118 145.23H48.8742L45.9359 144.1L42.0863 142.97H37.7928L33.7273 144.47L28.9782 147.87L27.8389 150.51L30.0335 151.45L35.9819 146.92L37.3371 147.87L40.5032 147.21L44.125 147.96V150.51V151.45Z" fill="#EDEEF1"/>
<path d="M53.6238 142.97L55.8784 141.83L54.7511 140.51L50.9854 141.74V144.1L53.6238 142.97Z" fill="#EDEEF1"/>
<path d="M50.9856 137.5V135.24L47.5557 134.67L48.4191 137.5H50.9856Z" fill="#EDEEF1"/>
<path d="M44.1254 137.5L42.9981 136.08L43.5618 133.16H46.3801V130.33V129.01L44.1254 129.96L41.8588 130.71L38.4648 133.26L40.7315 134.67V136.08L41.8588 139.01H44.1254V137.5Z" fill="#EDEEF1"/>
<path d="M36.8945 139.01L38.4655 131.84L37.674 130.15L35.3114 127.13L33.9442 123.36L36.2109 114.5L42.4231 107.71L46.3807 103.19V96.7799L49.271 95.8399V92.0599L53.4325 87.3499L57.0063 83.0199L63.3385 79.0599V73.7799L68.5433 70.5699L75.3192 66.0499V70.0099L80.7519 66.0499L85.9448 63.7899L90.0223 60.9599V58.5099L83.918 60.5799L80.2962 58.5099L79.3968 56.9999L80.9798 54.9299L80.5241 51.9099H74.8755L80.0684 49.2699L85.9448 47.0099L95.8988 43.9899L99.7365 42.1099L97.0261 46.6299L95.2152 49.4599L94.7715 52.4799H97.4818L100.876 51.9099H104.486L106.752 50.2099L111.046 49.2699V46.0699L108.563 44.1799L105.397 44.5599L104.713 43.2399V42.1099L102.003 41.1599V38.8999L105.841 37.7699L106.069 34.5699L105.841 31.3599H98.837L95.2152 27.9699L79.6246 26.6499L41.8595 75.4699L27.8399 88.2899L15.1876 107.9L12.0215 121.85L15.1876 130.71L20.8362 122.04L21.064 127.88L27.8399 127.13L30.0346 129.96L33.9442 134.01L32.3612 136.08L33.7284 140.51L36.8945 139.01Z" fill="#EDEEF1"/>
<path d="M126.647 3.07996L134.335 7.60996H143.377L147.899 -1.06004L153.775 -7.85004L161.007 -10.49L170.961 -13.88V-19.54L135.234 -12L126.647 3.07996Z" fill="#EDEEF1"/>
<path d="M220.695 12.8899V20.7999L229.738 16.8499V12.8899V9.11987H225.217L220.695 12.8899Z" fill="#EDEEF1"/>
<path d="M236.069 0.819824L232.459 2.70982V9.11983L236.069 11.3798L234.258 14.9598V18.9198L237.88 20.7998H232.459V24.5698L237.88 22.6898L250.544 20.7998L247.822 17.4098L250.544 14.9598H245.111L244.212 12.6998L241.502 7.60983L236.525 9.11983L241.502 5.71983V2.70982L236.069 0.819824Z" fill="#EDEEF1"/>
<path d="M220.694 43.7999V54.3599V60.7699L229.737 64.9199H237.88L243.756 58.1299L247.822 50.5899L250.544 47.5699L255.965 43.7999L263.196 41.5399L269.529 38.8999L277.216 46.8199L285.359 50.2099V56.6199H278.571L280.382 60.3899L285.359 61.5199L287.518 56.6199L291.235 54.3599V50.2099L290.78 47.1999L281.737 43.0499L278.127 35.8899L294.402 41.1599L300.734 56.2499L303.444 62.2799L307.51 60.3899V55.4899V51.7199L313.842 50.3999L316.108 56.9999L320.174 64.9199H326.506L330.572 62.6599L332.838 67.1799H335.549L337.815 62.6599V69.0699L334.194 76.9799H316.108L300.278 71.6999L298.467 76.9799L293.046 78.8699L287.518 74.3399L273.606 69.0699L274.05 63.7899L271.795 57.3799L265.463 60.7699L250.544 61.8999L241.502 66.0499L235.613 68.6899L225.215 66.7999V72.4599L216.629 78.8699L220.694 83.0199L210.296 92.8199L203.065 103.38V112.05V120.72L198.088 124.87L188.134 127.51V131.28L201.254 135.42L210.296 140.51L218.439 154.28L227.026 157.1L241.502 166.72L262.981 155.03L269.085 156.54L272.695 158.8L270.884 166.72L271.795 178.78L278.571 184.82L282.649 194.42L283.548 199.14L282.649 204.05L279.483 211.96L280.838 225.54L283.548 235.72L284.903 245.52L289.425 255.83L302.545 274.17L312.031 271.16L315.197 258.72L325.151 252.68L326.05 244.39L332.383 240.62L330.572 230.44L337.815 225.54V221.77L348.213 214.6V207.06V196.88L344.591 188.21L350.923 179.54L354.989 172L366.298 165.21L372.63 155.03L380.761 149.75V143.34V137.31L370.364 143.34L361.777 141.46L359.51 135.42L369.92 133.92L380.761 130.15L383.927 126.38L390.715 125.62L397.947 122.98V117.33L404.279 112.8V109.41L396.592 103L393.881 99.2299L396.592 96.9699L399.302 101.87L410.611 105.64H418.299L426.442 112.05V119.59L433.673 121.47L438.65 120.34L435.484 132.41L438.65 141.08V152.39L441.804 161.82L447.693 160.31L451.758 155.03L454.469 143.72L457.179 141.46L461.7 138.44L470.755 132.78L476.631 127.13H482.508L487.485 135.05L491.55 142.21V149V150.88L496.072 150.13L500.137 149V155.03V161.44V171.62L496.971 176.52L500.137 182.55V191.98L507.825 197.64V183.69L503.303 175.01L505.114 160.69L512.802 169.73V177.65L522.744 175.39L529.531 171.24L526.821 158.42L522.3 150.88L520.033 143.72L529.531 141.46L531.798 146.74L539.485 145.23L549.427 144.85L557.571 138.82L566.613 127.88L563.903 124.49L560.737 119.59L559.369 112.8L566.613 109.03L563.447 103.75L557.571 101.49L551.238 98.0999L557.115 96.5899L561.636 95.4599L564.346 99.2299L572.034 103V112.05L577.467 119.97H580.177L599.617 117.7V105.26L582.887 85.2799L581.988 42.2999L539.929 26.6499L520.945 7.6099V-14.0701L479.342 -19.5401L461.257 -31.2301L432.318 -53.1001L406.99 -40.2801L397.947 -31.2301L393.881 -25.3801H382.572L371.719 -19.5401L365.387 -25.3801H354.545H345.503L343.692 -19.5401L335.549 -25.3801L326.506 -31.2301H316.552L299.379 -37.2601L284.004 -31.2301L273.15 -19.5401L263.196 -8.6101H250.544L261.398 -2.0701H273.15L276.76 7.6099H271.34L268.629 0.819901L265.919 7.6099L265.007 12.6999L256.876 14.9599L246.023 26.6499H241.502L232.459 24.5699V30.6099L241.502 32.8699V40.4099L232.459 46.4399L220.694 43.7999Z" fill="#EDEEF1"/>
<path d="M367.498 208.07L360.866 216.61L354.845 220.64L350.624 229.68V241.25V244.77L367.498 234.21V220.64V208.07Z" fill="#EDEEF1"/>
<path d="M385.594 232.2H381.973V236.72H385.594V232.2Z" fill="#EDEEF1"/>
<path d="M385.594 189.47L381.973 194.42H385.594L391.015 189.47H385.594Z" fill="#EDEEF1"/>
<path d="M486.874 180.42L491.095 189.47L495.917 205.55L498.327 215.11L503.16 218.12L507.382 208.07L504.359 203.54L499.538 194.42L497.128 186.95L492.307 177.9L486.874 180.42Z" fill="#EDEEF1"/>
<path d="M517.623 202.03L514.613 208.07L517.623 218.12H524.255L528.477 220.13L533.898 218.12L539.33 211.08V205.05L544.151 202.03V198.01V191.95L538.119 194.42L532.698 198.01H524.255L517.623 202.03Z" fill="#EDEEF1"/>
<path d="M556.816 214.1L547.162 211.59H544.152V214.1L536.92 218.12V226.42V232.2H540.53L541.741 221.89L544.152 226.42L546.862 232.2L549.584 226.42L546.862 218.12L551.995 216.11L556.816 218.12V214.1Z" fill="#EDEEF1"/>
<path d="M567.669 215.61H564.047L561.637 218.12V224.15L564.647 219.88L567.669 215.61Z" fill="#EDEEF1"/>
<path d="M507.381 220.13L503.159 218.12V226.42H507.381L514.612 232.2H521.244L525.466 229.18L517.023 225.16L507.381 220.13Z" fill="#EDEEF1"/>
<path d="M525.467 234.46H529.377L531.488 236.72L528.477 241.25L523.057 236.72L525.467 234.46Z" fill="#EDEEF1"/>
<path d="M536.919 237.85L540.529 241.25H531.486L536.919 237.85Z" fill="#EDEEF1"/>
<path d="M550.783 244.77L546.861 239.55L540.529 241.25V244.77L544.151 248.28L550.783 244.77Z" fill="#EDEEF1"/>
<path d="M567.669 226.42L576.112 230.19V237.85L585.754 236.72L589.976 241.25L596.607 244.77V258.84V267.39L589.376 259.34L586.953 263.37L582.132 259.85L574.901 252.81L582.132 248.28L576.112 243.92L570.679 237.85L567.669 234.46V232.2V226.42Z" fill="#EDEEF1"/>
<path d="M564.647 232.2L556.815 230.19V234.46L561.637 236.72L564.647 232.2Z" fill="#EDEEF1"/>
<path d="M582.132 293.53L578.51 287.5L580.321 280.46L585.142 274.18L581.832 267.39L576.1 274.18L567.657 276.95L564.647 280.47L561.637 267.4L567.669 263.38L560.737 258.86L550.795 255.85L546.874 261.88L544.163 255.85H536.02L531.499 262.38H527.277L523.056 264.89L517.635 267.4L507.381 268.91L503.16 274.19L497.128 286L491.707 293.54V299.07L486.886 302.09L497.14 307.62L503.172 305.11L523.068 304.61L525.478 310.64L527.289 318.18H536.032V326.73C536.032 326.73 529.1 331.25 531.511 331.25C533.921 331.25 540.553 334.77 540.553 334.77L550.807 338.79H556.839L577.335 315.16L577.935 300.08L582.156 293.54L582.132 293.53Z" fill="#EDEEF1"/>
<path d="M553.794 191.95L560.738 194.42L564.647 191.95L567.669 198.01L564.647 202.03L560.738 206.04L556.816 201.53V194.42L553.794 191.95Z" fill="#EDEEF1"/>
<path d="M579.723 208.07L582.133 211.59L588.166 209.83V206.04L579.723 208.07Z" fill="#EDEEF1"/>
<path d="M556.815 162.32L550.782 169.36L553.792 177.9L556.815 182.93H564.646V177.9L561.636 172.63L564.646 162.32H560.736H556.815Z" fill="#EDEEF1"/>
<path d="M564.647 141.21L557.715 145.73L560.737 152.77H567.669V146.99L564.647 141.21Z" fill="#EDEEF1"/>
<path d="M529.376 149.75H536.92L536.008 152.77H531.187H525.467L529.376 149.75Z" fill="#EDEEF1"/>
</svg>
