<svg width="57" height="198" viewBox="0 0 57 198" fill="none" xmlns="http://www.w3.org/2000/svg">
<path d="M56.1526 0.110107H0.662109V197.9H56.1526V0.110107Z" fill="white"/>
<path d="M42.8763 9.97998H13.9258V13.73H42.8763V9.97998Z" fill="#3E4248"/>
<path d="M42.8763 49.9199H13.9258V53.6699H42.8763V49.9199Z" fill="#3E4248"/>
<path d="M42.8763 14.98H13.9258V25.36H42.8763V14.98Z" fill="#3E4248"/>
<path d="M42.8763 26.6199H13.9258V27.8199H42.8763V26.6199Z" fill="#3E4248"/>
<path d="M42.8763 28.6699H13.9258V29.8699H42.8763V28.6699Z" fill="#3E4248"/>
<path d="M42.8763 30.55H13.9258V31.75H42.8763V30.55Z" fill="#3E4248"/>
<path d="M42.8763 54.53H13.9258V55.73H42.8763V54.53Z" fill="#3E4248"/>
<path d="M42.8763 56.5801H13.9258V57.7801H42.8763V56.5801Z" fill="#3E4248"/>
<path d="M42.8763 58.7H13.9258V60.6199H42.8763V58.7Z" fill="#3E4248"/>
<path d="M42.8763 62.29H13.9258V64.22H42.8763V62.29Z" fill="#3E4248"/>
<path d="M42.8763 65.5801H13.9258V67.5101H42.8763V65.5801Z" fill="#3E4248"/>
<path d="M42.8763 68.98H13.9258V72.06H42.8763V68.98Z" fill="#3E4248"/>
<path d="M42.8763 33.6899H13.9258V37.5599H42.8763V33.6899Z" fill="#3E4248"/>
<path d="M42.8763 38.4399H13.9258V49.1999H42.8763V38.4399Z" fill="#3E4248"/>
<path d="M42.8763 72.05H13.9258V75.8H42.8763V72.05Z" fill="#3E4248"/>
<path d="M42.8763 111.99H13.9258V115.74H42.8763V111.99Z" fill="#3E4248"/>
<path d="M42.8763 77.0601H13.9258V82.2501H42.8763V77.0601Z" fill="#3E4248"/>
<path d="M42.8763 82.8799H13.9258V88.0699H42.8763V82.8799Z" fill="#3E4248"/>
<path d="M42.8763 88.7H13.9258V89.8999H42.8763V88.7Z" fill="#3E4248"/>
<path d="M42.8763 90.75H13.9258V91.95H42.8763V90.75Z" fill="#3E4248"/>
<path d="M42.8763 92.6199H13.9258V93.8199H42.8763V92.6199Z" fill="#3E4248"/>
<path d="M42.8763 116.61H13.9258V117.81H42.8763V116.61Z" fill="#3E4248"/>
<path d="M42.8763 118.66H13.9258V119.86H42.8763V118.66Z" fill="#3E4248"/>
<path d="M42.8763 120.77H13.9258V122.69H42.8763V120.77Z" fill="#3E4248"/>
<path d="M42.8763 124.36H13.9258V126.29H42.8763V124.36Z" fill="#3E4248"/>
<path d="M42.8763 127.66H13.9258V129.59H42.8763V127.66Z" fill="#3E4248"/>
<path d="M42.8763 131.05H13.9258V134.13H42.8763V131.05Z" fill="#3E4248"/>
<path d="M42.8763 95.76H13.9258V99.63H42.8763V95.76Z" fill="#3E4248"/>
<path d="M42.8763 100.52H13.9258V104.46H42.8763V100.52Z" fill="#3E4248"/>
<path d="M42.8763 105.02H13.9258V111.23H42.8763V105.02Z" fill="#3E4248"/>
<path d="M42.8763 186.09H13.9258V188.02H42.8763V186.09Z" fill="#3E4248"/>
<path d="M42.8763 182.8H13.9258V184.73H42.8763V182.8Z" fill="#3E4248"/>
<path d="M42.8763 178.26H13.9258V181.34H42.8763V178.26Z" fill="#3E4248"/>
<path d="M42.8763 174.51H13.9258V178.26H42.8763V174.51Z" fill="#3E4248"/>
<path d="M42.8763 134.57H13.9258V138.32H42.8763V134.57Z" fill="#3E4248"/>
<path d="M42.8763 168.06H13.9258V173.25H42.8763V168.06Z" fill="#3E4248"/>
<path d="M42.8763 162.24H13.9258V167.43H42.8763V162.24Z" fill="#3E4248"/>
<path d="M42.8763 160.41H13.9258V161.61H42.8763V160.41Z" fill="#3E4248"/>
<path d="M42.8763 158.36H13.9258V159.56H42.8763V158.36Z" fill="#3E4248"/>
<path d="M42.8763 156.49H13.9258V157.69H42.8763V156.49Z" fill="#3E4248"/>
<path d="M42.8763 150.68H13.9258V154.55H42.8763V150.68Z" fill="#3E4248"/>
<path d="M42.8763 145.85H13.9258V149.79H42.8763V145.85Z" fill="#3E4248"/>
<path d="M42.8763 139.07H13.9258V145.28H42.8763V139.07Z" fill="#3E4248"/>
</svg>
