<svg width="45" height="13" viewBox="0 0 45 13" fill="none" xmlns="http://www.w3.org/2000/svg">
<path d="M44.5214 8.02488L24.7608 8.29423L24.9389 7.13224C24.9389 7.13224 24.9389 7.12111 24.9411 7.11666V7.10998C24.9478 7.05656 24.9545 7.00313 24.9545 6.94748C24.9545 6.66032 24.8476 6.38874 24.6607 6.14833C24.6607 6.13943 24.6607 6.13274 24.6607 6.12384C24.6607 4.96185 23.8081 4.00242 22.6951 3.83102L22.5236 0H22.1474L21.976 3.83102C20.863 4.00465 20.0104 4.96407 20.0104 6.12384C20.0104 6.12829 20.0104 6.13274 20.0104 6.1372C19.819 6.37983 19.7099 6.65364 19.7099 6.94525C19.7099 7.0432 19.7255 7.13892 19.7478 7.23464L19.9036 8.24749L19.8524 8.29423L0.147461 8.02488L0.94661 8.63037L6.59408 9.2826L6.63638 10.1174H7.00813L7.12388 9.3427L11.2777 9.8213L11.3489 10.7362H11.6939L11.803 9.8814L13.644 10.0929C13.6551 10.6961 13.8265 11.522 14.846 11.5198C15.6541 11.5198 15.9346 10.9232 16.0236 10.3667L19.7166 10.7941C19.7545 10.8408 19.7901 10.8876 19.8346 10.9276C20.5091 11.5465 21.7356 12.1186 21.956 12.1186H22.7129C22.9332 12.1186 24.1598 11.5465 24.8343 10.9276C24.8788 10.8876 24.9144 10.8408 24.9523 10.7941L28.6453 10.3667C28.7343 10.9232 29.0148 11.5175 29.8228 11.5198C30.8424 11.5198 31.0138 10.6939 31.0249 10.0929L32.8658 9.8814L32.9749 10.7362H33.32L33.3912 9.8213L37.545 9.3427L37.6607 10.1174H38.0325L38.0748 9.2826L43.7223 8.63037L44.5214 8.02488ZM28.8634 8.73276L25.373 8.83739L24.9478 8.54355L29.1439 8.4879C29.0371 8.55468 28.9436 8.63927 28.8612 8.73276H28.8634ZM23.6945 4.69027C24.2177 4.95962 24.5538 5.37812 24.5538 5.85004C24.5538 5.90347 24.5471 5.95466 24.5382 6.00809C24.5071 5.97692 24.4737 5.94576 24.4403 5.91459C24.2555 5.69867 24.0017 5.51168 23.6945 5.37144V4.69027ZM23.4719 5.28462C23.1625 5.17555 22.8153 5.10877 22.4457 5.09764V4.38308C22.8197 4.39421 23.1692 4.46989 23.4719 4.58787V5.28462ZM21.1769 4.60346C21.4841 4.47657 21.8403 4.39644 22.2231 4.38308V5.09764C21.8447 5.10877 21.4885 5.18 21.1769 5.29575V4.60346ZM20.1217 5.85226C20.1217 5.39147 20.4445 4.97966 20.9454 4.71031V5.39148C20.6649 5.52281 20.4312 5.69422 20.2553 5.89234C20.213 5.92795 20.1752 5.96357 20.1373 6.00141C20.1284 5.95244 20.1217 5.90346 20.1217 5.85226ZM19.2937 8.82849L15.8032 8.72386C15.7231 8.63037 15.6274 8.55023 15.5227 8.48345L19.6009 8.53687L19.2937 8.82626V8.82849ZM14.2027 8.46786C14.107 8.52351 14.0202 8.59252 13.9445 8.67043L1.47418 8.30091L14.2027 8.46786ZM14.8483 10.5626C14.294 10.5626 13.8421 10.1129 13.8421 9.5564C13.8421 9.48962 13.8488 9.42284 13.8621 9.36051C13.8666 9.34493 13.871 9.32935 13.8755 9.31376C13.8888 9.25811 13.9066 9.20246 13.9289 9.15126C13.9289 9.15126 13.9289 9.15348 13.9289 9.15571C13.9289 9.15348 13.9289 9.15126 13.9311 9.14903C14.0869 8.79732 14.4387 8.55023 14.8483 8.55023C15.4025 8.55023 15.8544 8.99989 15.8544 9.5564C15.8544 10.1129 15.4048 10.5626 14.8483 10.5626ZM29.8273 10.5626C29.273 10.5626 28.8211 10.1129 28.8211 9.5564C28.8211 9.00212 29.2708 8.55023 29.8273 8.55023C30.3838 8.55023 30.8335 8.99989 30.8335 9.5564C30.8335 10.1107 30.3838 10.5626 29.8273 10.5626ZM30.74 8.67934C30.6621 8.5992 30.5752 8.5302 30.4795 8.47232L43.4974 8.30091L30.74 8.67934Z" fill="white"/>
<path d="M0.153598 8.02499L0 5.56299L0.852575 5.87909L2.17039 8.14074L0.153598 8.02499Z" fill="#FA8B02"/>
<path d="M44.5158 8.02499L44.6694 5.56299L43.8146 5.87909L42.499 8.14074L44.5158 8.02499Z" fill="#FA8B02"/>
</svg>
